# xmcd
#
# Track frame offsets:
#   150
#   11925
#   27750
#   41025
#   53550
#   70125
#   85950
#   96675
#   112350
#   124875
#   139950
#   153600
#   167775
#   180600
#   191325
#   205725
#   219225
#   229950
#
# Disc length: 3252 seconds
#
# Revision: 0
# Processed by: cddbd v1.5.1PL0 Copyright (c) Steve Scherf et al.
# Submitted via: BirdCage ASPI Rip 3.0.1
#
DISCID=0c0cb212
DTITLE=Margot Eskens - Oldies
DYEAR=2000
DGENRE=Blues
TTITLE0=Slagzeug, Bas und Klavier
TTITLE1=Adios, Vaya Con Dios
TTITLE2=Auch matrosen haben heimwee
TTITLE3=Cindy o Cindy
TTITLE4=Denn es ist weihnachtszeit
TTITLE5=Ein herz kan man nicht kaufen
TTITLE6=In Hawaii
TTITLE7=Lili Marleen
TTITLE8=Mama
TTITLE9=Mamaschtsi, Schenk mir ein pferdchen
TTITLE10=Mutti, du daftst doch nicht weinen
TTITLE11=Ob in Bombay, ob in Rio
TTITLE12=Tiritomba
TTITLE13=Wenn du heimkomst
TTITLE14=Wer einen seeman liebt
TTITLE15=Denn sie fahren hinaus auf das meer
TTITLE16=Wenndu wieder mal auf Cuba bist
TTITLE17=Himmelblaue serenade
EXTD=
EXTT0=
EXTT1=
EXTT2=
EXTT3=
EXTT4=
EXTT5=
EXTT6=
EXTT7=
EXTT8=
EXTT9=
EXTT10=
EXTT11=
EXTT12=
EXTT13=
EXTT14=
EXTT15=
EXTT16=
EXTT17=
PLAYORDER=
